<svg xmlns="http://www.w3.org/2000/svg" xmlns:xlink="http://www.w3.org/1999/xlink" width="352" height="138" viewBox="0 0 352 138">
  <defs>
    <polygon id="logo-a" points=".339 1.686 .339 9.264 3.557 7.77 3.557 .191"/>
    <linearGradient id="logo-b" x1="99.997%" x2=".005%" y1="50.001%" y2="50.001%">
      <stop offset="0%" stop-color="#EC1D24"/>
      <stop offset="100%" stop-color="#911B2B"/>
    </linearGradient>
    <polygon id="logo-d" points="0 .415 32.77 .415 32.77 37.504 0 37.504"/>
    <polygon id="logo-f" points=".237 .14 27.236 .14 27.236 58.236 .237 58.236"/>
    <polygon id="logo-h" points=".015 3.508 .015 7.121 6.94 3.918 6.94 .304"/>
    <linearGradient id="logo-i" x1="39.983%" x2="60.02%" y1="27.852%" y2="72.155%">
      <stop offset="0%" stop-color="#6ECFF5"/>
      <stop offset="100%" stop-color="#367B94"/>
    </linearGradient>
    <polygon id="logo-k" points=".015 3.259 .015 6.5 6.94 3.296 6.94 .055"/>
    <linearGradient id="logo-l" x1="59.036%" x2="40.967%" y1="68.03%" y2="31.97%">
      <stop offset="0%" stop-color="#6ECFF5"/>
      <stop offset="100%" stop-color="#367B94"/>
    </linearGradient>
    <polygon id="logo-n" points=".285 3.593 .285 7.04 7.21 3.836 7.21 .389"/>
    <linearGradient id="logo-o" x1="40.428%" x2="59.572%" y1="29.352%" y2="70.647%">
      <stop offset="0%" stop-color="#6ECFF5"/>
      <stop offset="100%" stop-color="#367B94"/>
    </linearGradient>
    <polygon id="logo-q" points=".285 3.617 .285 7.36 7.21 4.157 7.21 .414"/>
    <linearGradient id="logo-r" x1="60.359%" x2="39.641%" y1="72.282%" y2="27.718%">
      <stop offset="0%" stop-color="#6ECFF5"/>
      <stop offset="100%" stop-color="#367B94"/>
    </linearGradient>
    <polygon id="logo-t" points=".22 1.993 .22 9.573 3.759 7.948 3.759 .369"/>
    <linearGradient id="logo-u" x1="0%" x2="99.996%" y1="49.998%" y2="49.998%">
      <stop offset="0%" stop-color="#EC1D24"/>
      <stop offset="100%" stop-color="#911B2B"/>
    </linearGradient>
    <polygon id="logo-w" points=".122 1.566 .122 9.146 3.27 7.677 3.27 .098"/>
    <linearGradient id="logo-x" x1="100.003%" x2="-.007%" y1="49.999%" y2="49.999%">
      <stop offset="0%" stop-color="#EC1D24"/>
      <stop offset="100%" stop-color="#911B2B"/>
    </linearGradient>
    <polygon id="logo-z" points=".39 1.413 .39 8.993 3.365 7.615 3.365 .036"/>
    <linearGradient id="logo-A" x1=".009%" x2="100.009%" y1="49.997%" y2="49.997%">
      <stop offset="0%" stop-color="#EC1D24"/>
      <stop offset="100%" stop-color="#911B2B"/>
    </linearGradient>
    <polygon id="logo-C" points=".169 1.674 .169 9.253 3.103 7.896 3.103 .316"/>
    <linearGradient id="logo-D" x1="99.989%" x2="-.01%" y1="50.002%" y2="50.002%">
      <stop offset="0%" stop-color="#EC1D24"/>
      <stop offset="100%" stop-color="#911B2B"/>
    </linearGradient>
    <polygon id="logo-F" points=".239 3.482 .239 .655 .238 .655 .238 3.483 7.163 .279 7.163 .279"/>
    <linearGradient id="logo-G" x1="35.155%" x2="50.324%" y1="34.572%" y2="50.337%">
      <stop offset="0%" stop-color="#FEC20D"/>
      <stop offset="100%" stop-color="#A1792E"/>
    </linearGradient>
    <polygon id="logo-I" points=".239 3.299 .239 6.562 7.163 3.359 7.163 .096"/>
    <linearGradient id="logo-J" x1="40.92%" x2="59.077%" y1="30.958%" y2="69.044%">
      <stop offset="0%" stop-color="#FEC20D"/>
      <stop offset="100%" stop-color="#A1792E"/>
    </linearGradient>
    <polygon id="logo-L" points=".238 3.58 .238 6.627 7.162 3.424 7.162 .377"/>
    <linearGradient id="logo-M" x1="58.498%" x2="41.506%" y1="66.442%" y2="33.556%">
      <stop offset="0%" stop-color="#FEC20D"/>
      <stop offset="100%" stop-color="#A1792E"/>
    </linearGradient>
    <polygon id="logo-O" points=".067 3.446 .067 6.465 6.993 3.257 6.993 .243"/>
    <linearGradient id="logo-P" x1="41.581%" x2="58.421%" y1="33.01%" y2="66.991%">
      <stop offset="0%" stop-color="#FEC20D"/>
      <stop offset="100%" stop-color="#A1792E"/>
    </linearGradient>
    <polygon id="logo-R" points=".067 3.482 .067 6.556 6.993 3.352 6.993 .276"/>
    <linearGradient id="logo-S" x1="58.579%" x2="41.444%" y1="66.68%" y2="33.356%">
      <stop offset="0%" stop-color="#FEC20D"/>
      <stop offset="100%" stop-color="#A1792E"/>
    </linearGradient>
    <path id="logo-U" d="M0.391246668,0.239853132 L0.391246668,7.39231752 C1.26307979,7.01427378 2.31711328,6.85495849 3.21403196,6.87476288 L3.21403196,6.87476288 C3.20963099,6.87476288 3.16518114,6.87168219 3.12997334,6.86948171 L3.12997334,6.86948171 L3.21403196,6.87476288 L3.29236932,0.00528116987 C3.28928863,0.00528116987 3.28620795,0.00528116987 3.28312727,0.00528116987 L3.28312727,0.00528116987 C2.28894704,0.00528116987 1.27408223,0.0690953058 0.391246668,0.239853132"/>
    <linearGradient id="logo-V" x1="100.004%" x2="-.006%" y1="49.998%" y2="49.998%">
      <stop offset="0%" stop-color="#EC1D24"/>
      <stop offset="100%" stop-color="#911B2B"/>
    </linearGradient>
    <polygon id="logo-X" points="-.002 1.822 -.002 9.401 3.147 7.938 3.147 .357"/>
    <linearGradient id="logo-Y" x1="-.011%" x2="100.007%" y1="50.002%" y2="50.002%">
      <stop offset="0%" stop-color="#EC1D24"/>
      <stop offset="100%" stop-color="#911B2B"/>
    </linearGradient>
    <path id="logo-aa" d="M0.361320038,0.664547208 L0.234131864,7.56747632 C1.09584275,7.63701173 2.18728452,7.59432227 3.09608584,7.46053263 L3.09608584,7.46053263 L3.09608584,0.402689202 C2.19740676,0.691833253 1.25735853,0.770610703 0.361320038,0.664547208"/>
    <linearGradient id="logo-ab" x1="-.007%" x2="100.005%" y1="49.999%" y2="49.999%">
      <stop offset="0%" stop-color="#EC1D24"/>
      <stop offset="100%" stop-color="#911B2B"/>
    </linearGradient>
  </defs>
  <g fill="none" fill-rule="evenodd" transform="translate(0 .25)">
    <g transform="translate(22.005 87.439)">
      <mask id="logo-c" fill="#fff">
        <use xlink:href="#logo-a"/>
      </mask>
      <polygon fill="url(#logo-b)" points=".339 1.686 .339 9.264 3.557 7.77 3.557 .191" mask="url(#logo-c)"/>
    </g>
    <g transform="translate(0 .3)">
      <g transform="translate(0 61.614)">
        <mask id="logo-e" fill="#fff">
          <use xlink:href="#logo-d"/>
        </mask>
        <path fill="#EC1D24" d="M7.70738332,27.0275311 L7.52078198,26.630123 C6.03853364,23.4799052 7.41735907,19.723233 10.5926625,18.2541876 L32.769615,7.99507504 L32.769615,0.415275991 L22.3437055,5.23830437 L7.66557405,12.0285685 C1.03110441,15.0973683 -1.85109405,22.9500278 1.2432314,29.5334462 L1.43027283,29.9312943 C3.56254516,34.4664989 7.98244425,37.2276706 12.6954483,37.5044919 L12.6954483,30.5927608 C10.5935426,30.3445458 8.66635574,29.0687032 7.70738332,27.0275311" mask="url(#logo-e)"/>
      </g>
      <polygon fill="#EC1D24" points="69.217 45.168 45.141 56.306 45.141 63.886 79.639 47.927 79.639 40.347 79.639 40.347"/>
      <polygon fill="#EC1D24" points="42.418 79.538 42.418 79.538 35.493 82.742 25.067 87.565 25.067 95.144 35.493 90.321 42.418 87.118 59.569 79.183 59.569 71.604"/>
      <path fill="#EC1D24" d="M103.989447,44.0716266 L103.804166,43.6742186 C101.593117,38.9717769 96.904758,36.1819989 91.9972309,36.0878181 L91.9871087,42.9550993 C91.9739058,42.9546592 92.0003116,42.9555394 91.9871087,42.9550993 C94.3029017,43.0285956 96.4818244,44.3559296 97.5266158,46.5775417 L97.7136572,46.9749497 C99.1941452,50.1251676 97.8157598,53.8818397 94.6404565,55.3508852 L71.9094211,65.8806577 L71.9094211,73.4600166 L97.5671048,61.5765042 C104.203335,58.5077044 107.084213,50.6550449 103.989447,44.0716266"/>
      <g transform="translate(62.054)">
        <mask id="logo-g" fill="#fff">
          <use xlink:href="#logo-f"/>
        </mask>
        <path fill="#FEC10E" d="M13.9574718,0.140303079 L13.5151738,0.140303079 C6.19371201,0.140303079 0.236992498,6.04817177 0.236992498,13.3115407 L0.236992498,45.549562 L7.16104629,42.3460924 L7.16192649,13.3115407 C7.16192649,9.83653096 10.0124379,7.00978479 13.5151738,7.00978479 L13.9574718,7.00978479 C17.4602077,7.00978479 20.3093989,9.83653096 20.3093989,13.3115407 L20.3102791,58.2362523 L27.234773,55.0327827 L27.2356532,13.3115407 C27.2356532,6.04817177 21.2789336,0.140303079 13.9574718,0.140303079" mask="url(#logo-g)"/>
      </g>
      <path fill="#FEC10E" d="M89.2900152,68.2606609 L82.3650813,71.4641305 L82.3646412,99.2923749 C82.3646412,102.766945 79.51545,105.595451 76.0127141,105.595451 L75.5704161,105.595451 C72.0676802,105.595451 69.2171688,102.766945 69.2171688,99.2923749 L69.2171688,74.7199717 L69.2171688,67.1406128 L69.2158485,55.5766112 L62.2917947,58.7796407 L62.2922348,70.3440824 L62.2922348,77.9238815 L62.2922348,99.2923749 C62.2922348,106.555304 68.2489543,112.464933 75.5704161,112.464933 L76.0127141,112.464933 C83.3337358,112.464933 89.2908954,106.555304 89.2908954,99.2923749 L89.2900152,68.2606609 Z"/>
      <path fill="#B58E2E" d="M82.3645091,39.0861582 L82.3627487,39.0870384 L82.3645091,39.0861582 Z"/>
      <path fill="#6DCEF5" d="M42.4176962 65.1456069L42.4176962 57.5658078 42.4176962 35.9253341C42.4176962 28.6624052 36.462297 22.7545365 29.1408352 22.7545365L28.6972169 22.7545365C21.3744348 22.7545365 15.4190356 28.6624052 15.4190356 35.9253341L15.4190356 67.2285883 22.3439696 64.0251186 22.3439696 35.9253341C22.3439696 32.4507644 25.194481 29.6240182 28.6972169 29.6240182L29.1408352 29.6240182C32.6435711 29.6240182 35.4927622 32.4507644 35.4927622 35.9253341L35.4927622 60.7692774 35.4927622 68.3490765 35.4927622 79.9148385 42.4176962 76.7113689 42.4176962 65.1456069zM35.4928063 121.910657C35.4928063 125.385667 32.6436151 128.213293 29.1408792 128.213293L28.6972609 128.213293C25.194525 128.213293 22.3440136 125.385667 22.3440136 121.910657L22.3440136 96.4039271 22.3440136 88.8245681 22.3440136 77.2592462 15.4190796 80.4627158 15.4190796 91.9426588 15.4190796 99.0005023 15.4190796 121.910657C15.4190796 129.173586 21.3744788 135.083215 28.6972609 135.083215L29.1408792 135.083215C36.462341 135.083215 42.4177402 129.173586 42.4177402 121.910657L42.4177402 89.943296 35.4928063 93.1472057 35.4928063 121.910657z"/>
    </g>
    <g transform="translate(15.403 63.234)">
      <mask id="logo-j" fill="#fff">
        <use xlink:href="#logo-h"/>
      </mask>
      <polygon fill="url(#logo-i)" points=".015 3.508 .015 7.121 6.94 3.918 6.94 .304" mask="url(#logo-j)"/>
    </g>
    <g transform="translate(15.403 74.676)">
      <mask id="logo-m" fill="#fff">
        <use xlink:href="#logo-k"/>
      </mask>
      <polygon fill="url(#logo-l)" points=".015 3.259 .015 6.5 6.94 3.296 6.94 .055" mask="url(#logo-m)"/>
    </g>
    <g transform="translate(35.208 75.996)">
      <mask id="logo-p" fill="#fff">
        <use xlink:href="#logo-n"/>
      </mask>
      <polygon fill="url(#logo-o)" points=".285 3.593 .285 7.04 7.21 3.836 7.21 .389" mask="url(#logo-p)"/>
    </g>
    <g transform="translate(35.208 86.999)">
      <mask id="logo-s" fill="#fff">
        <use xlink:href="#logo-q"/>
      </mask>
      <polygon fill="url(#logo-r)" points=".285 3.617 .285 7.36 7.21 4.157 7.21 .414" mask="url(#logo-s)"/>
    </g>
    <g transform="translate(58.533 70.275)">
      <mask id="logo-v" fill="#fff">
        <use xlink:href="#logo-t"/>
      </mask>
      <polygon fill="url(#logo-u)" points=".22 1.993 .22 9.573 3.759 7.948 3.759 .369" mask="url(#logo-v)"/>
    </g>
    <g transform="translate(69.095 65.874)">
      <mask id="logo-y" fill="#fff">
        <use xlink:href="#logo-w"/>
      </mask>
      <polygon fill="url(#logo-x)" points=".122 1.566 .122 9.146 3.27 7.677 3.27 .098" mask="url(#logo-y)"/>
    </g>
    <g transform="translate(32.127 61.033)">
      <mask id="logo-B" fill="#fff">
        <use xlink:href="#logo-z"/>
      </mask>
      <polygon fill="url(#logo-A)" points=".39 1.413 .39 8.993 3.365 7.615 3.365 .036" mask="url(#logo-B)"/>
    </g>
    <g transform="translate(42.25 56.192)">
      <mask id="logo-E" fill="#fff">
        <use xlink:href="#logo-C"/>
      </mask>
      <polygon fill="url(#logo-D)" points=".169 1.674 .169 9.253 3.103 7.896 3.103 .316" mask="url(#logo-E)"/>
    </g>
    <g transform="translate(62.054 45.19)">
      <mask id="logo-H" fill="#fff">
        <use xlink:href="#logo-F"/>
      </mask>
      <polygon fill="url(#logo-G)" points=".239 3.482 .239 .655 .238 .655 .238 3.483 7.163 .279 7.163 .279" mask="url(#logo-H)"/>
    </g>
    <g transform="translate(62.054 42.109)">
      <mask id="logo-K" fill="#fff">
        <use xlink:href="#logo-I"/>
      </mask>
      <polygon fill="url(#logo-J)" points=".239 3.299 .239 6.562 7.163 3.359 7.163 .096" mask="url(#logo-K)"/>
    </g>
    <g transform="translate(62.054 52.671)">
      <mask id="logo-N" fill="#fff">
        <use xlink:href="#logo-L"/>
      </mask>
      <polygon fill="url(#logo-M)" points=".238 3.58 .238 6.627 7.162 3.424 7.162 .377" mask="url(#logo-N)"/>
    </g>
    <g transform="translate(82.298 54.872)">
      <mask id="logo-Q" fill="#fff">
        <use xlink:href="#logo-O"/>
      </mask>
      <polygon fill="url(#logo-P)" points=".067 3.446 .067 6.465 6.993 3.257 6.993 .243" mask="url(#logo-Q)"/>
    </g>
    <g transform="translate(82.298 65.434)">
      <mask id="logo-T" fill="#fff">
        <use xlink:href="#logo-R"/>
      </mask>
      <polygon fill="url(#logo-S)" points=".067 3.482 .067 6.556 6.993 3.352 6.993 .276" mask="url(#logo-T)"/>
    </g>
    <g transform="translate(88.9 36.388)">
      <mask id="logo-W" fill="#fff">
        <use xlink:href="#logo-U"/>
      </mask>
      <path fill="url(#logo-V)" d="M0.391246668,0.239853132 L0.391246668,7.39231752 C1.26307979,7.01427378 2.31711328,6.85495849 3.21403196,6.87476288 L3.21403196,6.87476288 C3.20963099,6.87476288 3.16518114,6.87168219 3.12997334,6.86948171 L3.12997334,6.86948171 L3.21403196,6.87476288 L3.29236932,0.00528116987 C3.28928863,0.00528116987 3.28620795,0.00528116987 3.28312727,0.00528116987 L3.28312727,0.00528116987 C2.28894704,0.00528116987 1.27408223,0.0690953058 0.391246668,0.239853132" mask="url(#logo-W)"/>
    </g>
    <g transform="translate(79.218 39.028)">
      <mask id="logo-Z" fill="#fff">
        <use xlink:href="#logo-X"/>
      </mask>
      <polygon fill="url(#logo-Y)" points="-.002 1.822 -.002 9.401 3.147 7.938 3.147 .357" mask="url(#logo-Z)"/>
    </g>
    <g transform="translate(12.323 91.84)">
      <mask id="logo-ac" fill="#fff">
        <use xlink:href="#logo-aa"/>
      </mask>
      <path fill="url(#logo-ab)" d="M0.361320038,0.664547208 L0.234131864,7.56747632 C1.09584275,7.63701173 2.18728452,7.59432227 3.09608584,7.46053263 L3.09608584,7.46053263 L3.09608584,0.402689202 C2.19740676,0.691833253 1.25735853,0.770610703 0.361320038,0.664547208" mask="url(#logo-ac)"/>
    </g>
    <g fill="#004684" transform="translate(113.392 35.867)">
      <polygon points=".065 .696 3.115 .696 12.431 25.929 21.914 .696 24.839 .696 13.684 30.441 11.178 30.441"/>
      <polygon points="26.872 30.441 29.379 30.441 29.379 .696 26.872 .696"/>
      <path d="M38.7896462 28.6027684C41.2128229 28.6027684 45.5156561 26.9730874 45.5156561 22.127614L45.5156561 19.8294249 38.2883751 21.8349492C36.283291 22.3775894 34.6958593 23.3387623 34.6958593 25.594702 34.6958593 27.8088325 36.9099898 28.6027684 38.7896462 28.6027684L38.7896462 28.6027684zM50.9050899 30.6914711C47.8134051 30.6914711 45.9333086 30.6914711 45.6828931 27.1821337L45.5992746 27.1821337C44.0536522 29.8975352 41.6309156 30.9418865 38.5805999 30.9418865 35.3225581 30.9418865 32.189064 29.3126456 32.189064 25.6365113 32.189064 21.3750473 35.9074477 20.1220898 39.3745357 19.2449755L45.5156561 17.6571037 45.5156561 15.6520196C45.5156561 13.0616057 43.6773689 11.9758852 40.5029457 11.9758852 37.1604053 11.9758852 35.6147829 13.6046861 35.5316045 16.8213586L32.6903351 16.3205277C33.5260802 12.0172544 36.1160539 9.88718256 40.5861241 9.88718256 48.0224514 9.88718256 48.0224514 14.1895756 48.0224514 16.1532906L48.0224514 25.9705453C48.0224514 28.5609591 49.1922305 28.6027684 50.9050899 28.6027684L50.9050899 30.6914711zM58.2849967 28.6027684C60.7081735 28.6027684 65.0110066 26.9730874 65.0110066 22.127614L65.0110066 19.8294249 57.7837257 21.8349492C55.7786415 22.3775894 54.1907698 23.3387623 54.1907698 25.594702 54.1907698 27.8088325 56.4053403 28.6027684 58.2849967 28.6027684L58.2849967 28.6027684zM70.4004405 30.6914711C67.3083155 30.6914711 65.4282191 30.6914711 65.1778036 27.1821337L65.0946252 27.1821337C63.5485627 29.8975352 61.125826 30.9418865 58.0759504 30.9418865 54.8179087 30.9418865 51.6848547 29.3126456 51.6848547 25.6365113 51.6848547 21.3750473 55.4023582 20.1220898 58.8698863 19.2449755L65.0110066 17.6571037 65.0110066 15.6520196C65.0110066 13.0616057 63.1722793 11.9758852 59.9982962 11.9758852 56.6561959 11.9758852 55.1101334 13.6046861 55.026955 16.8213586L52.1856856 16.3205277C53.0218708 12.0172544 55.6114045 9.88718256 60.0810346 9.88718256 67.5178019 9.88718256 67.5178019 14.1895756 67.5178019 16.1532906L67.5178019 25.9705453C67.5178019 28.5609591 68.6875811 28.6027684 70.4004405 28.6027684L70.4004405 30.6914711zM72.641901 10.3881455L75.1482562 10.3881455 75.1482562 13.6048181 75.2323148 13.6048181C76.1094291 11.4743061 77.9890855 9.88687449 80.7881055 9.88687449 83.7548027 9.88687449 86.13529 11.3075092 86.5538227 14.2733262L86.6370012 14.2733262C87.6813525 11.5579247 89.6028181 9.88687449 92.9035493 9.88687449 98.7097555 9.88687449 98.7097555 14.7745972 98.7097555 17.197774L98.7097555 30.4407475 96.2034003 30.4407475 96.2034003 17.4899987C96.2034003 15.2344991 96.1202219 12.2259926 92.360469 12.2259926 88.8511316 12.2259926 86.9292259 15.401296 86.9292259 19.2864767L86.9292259 30.4407475 84.4233108 30.4407475 84.4233108 17.8240327C84.4233108 15.2344991 84.1724552 12.2259926 80.5794993 12.2259926 77.4882546 12.2259926 75.1482562 14.9836435 75.1482562 19.4119044L75.1482562 30.4407475 72.641901 30.4407475 72.641901 10.3881455zM103.220931 24.8845167C104.307091 27.7671553 105.894523 28.8533159 109.027137 28.8533159 111.074911 28.8533159 113.91574 28.05938 113.91574 24.7590889 113.91574 18.7852056 102.051152 23.3807036 102.051152 15.401296 102.051152 12.5186575 104.432519 9.88687449 108.902149 9.88687449 112.829579 9.88687449 115.503172 11.0566536 116.463904 14.4405632L114.082537 15.0254528C113.205863 12.5186575 111.575742 11.9755772 109.278433 11.9755772 105.51868 11.9755772 104.557507 13.4793903 104.557507 15.4849146 104.557507 20.6653021 116.422095 16.7801215 116.422095 24.8427075 116.422095 28.1429985 113.664444 30.9420186 108.652174 30.9420186 105.643667 30.9420186 102.71922 30.1067135 100.797754 25.6362032L103.220931 24.8845167zM133.772058 18.2419933C133.228978 15.3175455 131.724725 12.2263007 127.546879 12.2263007 123.996173 12.2263007 121.740233 14.899893 121.322581 18.2419933L133.772058 18.2419933zM121.322581 20.3311361L121.322581 20.8737763C121.322581 25.3442866 123.285856 28.6027684 127.755926 28.6027684 131.223454 28.6027684 133.061301 27.0153367 134.272889 24.3413044L136.612448 24.9680032C135.108634 28.6859468 131.97514 30.9418865 127.546879 30.9418865 122.534169 30.9418865 118.481311 27.2657522 118.481311 20.4147546 118.481311 13.5628768 122.534169 9.88718256 127.546879 9.88718256 133.478953 9.88718256 136.403401 14.3986219 136.612448 20.3311361L121.322581 20.3311361z"/>
      <polygon points="2.781 34.537 8.378 34.537 8.378 45.691 21.162 45.691 21.162 34.537 26.76 34.537 26.76 64.281 21.162 64.281 21.162 50.871 8.378 50.871 8.378 64.281 2.781 64.281"/>
      <path d="M34.7947932 53.7119585C34.7947932 57.0122496 36.6330805 60.1034943 40.2674055 60.1034943 43.9021707 60.1034943 45.7400178 57.0122496 45.7400178 53.7119585 45.7400178 50.4112273 43.9021707 47.3204227 40.2674055 47.3204227 36.6330805 47.3204227 34.7947932 50.4112273 34.7947932 53.7119585M51.0872023 53.7119585C51.0872023 60.0198758 47.1188432 64.7826108 40.2674055 64.7826108 33.4164079 64.7826108 29.4476087 60.0198758 29.4476087 53.7119585 29.4476087 47.4036011 33.4164079 42.6413062 40.2674055 42.6413062 47.1188432 42.6413062 51.0872023 47.4036011 51.0872023 53.7119585M63.1883869 47.3202466C59.3454556 47.3202466 58.2170457 50.6623469 58.1752364 52.9182867 58.2170457 55.1742264 59.3454556 58.5158866 63.1883869 58.5158866 67.0317583 58.5158866 68.1601682 55.1742264 68.2019775 52.9182867 68.1601682 50.6623469 67.0317583 47.3202466 63.1883869 47.3202466L63.1883869 47.3202466zM73.1315095 63.821702C73.1315095 69.8378346 69.6675021 71.816953 62.9797807 71.816953 56.29558 71.816953 53.5383693 67.3724085 53.5383693 64.7406255L58.8855538 64.7406255C59.2618371 66.2026294 60.6824718 67.3724085 63.2306363 67.3724085 66.5304872 67.3724085 68.0351805 65.7022385 68.0351805 63.1113846L68.0351805 60.8554449C66.4059396 62.6105537 63.856895 63.1950031 62.0190479 63.1950031 56.7550418 63.1950031 52.8280519 59.2675731 52.8280519 52.9182867 52.8280519 46.5685601 56.7550418 42.6411301 62.0190479 42.6411301 65.0684834 42.6411301 66.6981644 43.6854815 67.9511219 45.1892946L68.0351805 45.1892946 68.0351805 43.1424012 73.1315095 43.1424012 73.1315095 63.821702zM91.2338634 50.996601C91.2338634 49.8686311 89.8554781 46.8187555 86.4297593 46.8187555 83.4635022 46.8187555 81.4997872 48.7406613 80.9567069 50.996601L91.2338634 50.996601zM80.9567069 54.9235909C81.0407655 58.0562048 83.6721084 60.1035383 86.4297593 60.1035383 90.4399276 60.1035383 92.0277993 57.8062294 92.5281902 57.095472L96.8314634 59.6022673C95.2440318 62.0254441 92.1945963 64.7826548 86.4297593 64.7826548 79.5787616 64.7826548 75.6095224 60.0199198 75.6095224 53.7120025 75.6095224 47.4036451 79.5787616 42.6413502 86.4297593 42.6413502 93.4898032 42.6413502 96.5810479 47.3613957 96.5810479 54.9235909L80.9567069 54.9235909zM113.794889 49.8267338C113.16819 48.4483485 111.4967 46.8186675 108.489074 46.8186675 106.107706 46.7768582 104.603893 47.6126034 104.603893 48.866001 104.603893 52.5421354 117.930485 49.4090813 117.930485 57.3880488 117.930485 62.4852579 113.377237 64.7825668 108.530883 64.7825668 103.559542 64.7825668 100.176072 63.0697074 98.2959758 60.9391954L102.138907 57.9733785C103.308686 59.6857978 105.523257 60.6047214 108.238218 60.6047214 110.661395 60.6047214 112.332885 59.2677052 112.332885 58.1401754 112.332885 54.5476596 99.2567086 57.5134766 99.2567086 49.4922598 99.2567086 44.7299648 103.392305 42.6412621 108.614061 42.6412621 113.669461 42.6412621 116.343054 45.231676 117.345156 46.4846335L113.794889 49.8267338zM135.018414 50.7039362C134.349906 48.6152335 132.553869 47.3204667 130.548784 47.3204667 126.914459 47.3204667 125.075732 50.4112713 125.075732 53.7120025 125.075732 57.0122936 126.704973 60.1035383 130.255679 60.1035383 133.305555 60.1035383 134.600762 57.9312171 135.394258 56.0097515L139.73934 58.3070604C138.319146 61.3987452 135.895969 64.7826548 130.172501 64.7826548 123.696907 64.7826548 119.728547 60.0199198 119.728547 53.7120025 119.728547 47.4036451 123.696907 42.6413502 130.548784 42.6413502 135.686923 42.6413502 138.193718 45.4817394 139.488925 48.6570427L135.018414 50.7039362zM142.748947 34.5365588L147.845716 34.5365588 147.245863 45.2313679 147.328601 45.2313679C148.457451 43.769364 150.503905 42.6413942 153.386983 42.6413942 156.979499 42.6413942 161.115535 44.1452073 161.115535 50.2863277L161.115535 64.2809877 156.018766 64.2809877 156.018766 51.7483315C156.018766 48.8238837 154.848987 47.5709261 152.258133 47.5709261 148.415642 47.5709261 147.245863 50.8289679 147.245863 53.4198218L147.245863 64.2809877 142.149094 64.2809877 142.748947 34.5365588zM168.940337 53.7119585C168.940337 57.0122496 170.778184 60.1034943 174.413389 60.1034943 178.047274 60.1034943 179.885561 57.0122496 179.885561 53.7119585 179.885561 50.4112273 178.047274 47.3204227 174.413389 47.3204227 170.778184 47.3204227 168.940337 50.4112273 168.940337 53.7119585M185.233186 53.7119585C185.233186 60.0198758 181.263947 64.7826108 174.413389 64.7826108 167.561071 64.7826108 163.593152 60.0198758 163.593152 53.7119585 163.593152 47.4036011 167.561071 42.6413062 174.413389 42.6413062 181.263947 42.6413062 185.233186 47.4036011 185.233186 53.7119585"/>
      <polygon points="188.311 34.537 193.407 34.537 192.808 64.281 187.711 64.281"/>
      <path d="M210.909046 50.996601C210.909046 49.8686311 209.52978 46.8187555 206.104501 46.8187555 203.138684 46.8187555 201.174969 48.7406613 200.631449 50.996601L210.909046 50.996601zM200.631449 54.9235909C200.715067 58.0562048 203.34685 60.1035383 206.104501 60.1035383 210.11511 60.1035383 211.702541 57.8062294 212.203372 57.095472L216.507086 59.6022673C214.919214 62.0254441 211.869778 64.7826548 206.104501 64.7826548 199.253064 64.7826548 195.284264 60.0199198 195.284264 53.7120025 195.284264 47.4036451 199.253064 42.6413502 206.104501 42.6413502 213.164105 42.6413502 216.25623 47.3613957 216.25623 54.9235909L200.631449 54.9235909zM219.250697 43.1425332L224.347466 43.1425332 224.347466 45.231676 224.431085 45.231676C225.934898 43.3933888 228.149028 42.6412621 230.196362 42.6412621 235.209072 42.6412621 237.465452 45.1894266 237.465452 49.8267338L237.465452 64.2812958 232.368683 64.2812958 232.368683 51.3723562C232.368683 49.4504505 231.490689 47.5707941 228.859346 47.5707941 226.39436 47.5707941 224.347466 49.2422844 224.347466 53.127465L224.347466 64.2812958 219.250697 64.2812958 219.250697 43.1425332zM5.62139084 83.6901672L14.4361034 83.6901672C20.451796 83.6901672 21.7888122 80.6402916 21.7888122 78.0085086 21.7888122 74.5409805 19.9509651 72.3272901 14.8955652 72.3272901L5.62139084 72.3272901 5.62139084 83.6901672zM2.78056155 69.7373164L15.9403567 69.7373164C22.0810369 69.7373164 24.6296415 73.8311032 24.6296415 78.0085086 24.6296415 83.1057177 21.2875412 85.7793099 15.8985474 86.1551532L25.4231373 99.4817453 21.8306215 99.4817453 12.3887699 86.2801409 5.62139084 86.2801409 5.62139084 99.4817453 2.78056155 99.4817453 2.78056155 69.7373164zM32.9710292 97.643062C35.394206 97.643062 39.6970392 96.0142612 39.6970392 91.1683477L39.6970392 88.8705987 32.4697582 90.8756829C30.464674 91.4187632 28.8772424 92.379496 28.8772424 94.6358758 28.8772424 96.8495662 31.0913729 97.643062 32.9710292 97.643062L32.9710292 97.643062zM45.086473 99.7322047C41.9947882 99.7322047 40.1146917 99.7322047 39.8642762 96.2228674L39.7806577 96.2228674C38.2350353 98.9382689 35.8122986 99.9826202 32.7619829 99.9826202 29.5035011 99.9826202 26.3704471 98.3538194 26.3704471 94.677245 26.3704471 90.415781 30.0883907 89.1628235 33.5559188 88.2852691L39.6970392 86.6978374 39.6970392 84.6923132C39.6970392 82.1023394 37.8591921 81.0166189 34.6838887 81.0166189 31.3417883 81.0166189 29.796166 82.6458598 29.7129875 85.8620923L26.8717181 85.3612613C27.7074633 81.0579881 30.297437 78.9279162 34.7675072 78.9279162 42.2038345 78.9279162 42.2038345 83.2303093 42.2038345 85.1940243L42.2038345 95.0117191C42.2038345 97.6016928 43.3736136 97.643062 45.086473 97.643062L45.086473 99.7322047zM53.0665848 97.643062C55.4897615 97.643062 59.7921546 96.0142612 59.7921546 91.1683477L59.7921546 88.8705987 52.5653137 90.8756829C50.5602296 91.4187632 48.9727979 92.379496 48.9727979 94.6358758 48.9727979 96.8495662 51.1869284 97.643062 53.0665848 97.643062L53.0665848 97.643062zM65.1820285 99.7322047C62.0899036 99.7322047 60.2098071 99.7322047 59.9593916 96.2228674L59.8762132 96.2228674C58.3301507 98.9382689 55.907414 99.9826202 52.8575384 99.9826202 49.5994967 99.9826202 46.4660026 98.3538194 46.4660026 94.677245 46.4660026 90.415781 50.1843863 89.1628235 53.6514743 88.2852691L59.7921546 86.6978374 59.7921546 84.6923132C59.7921546 82.1023394 57.9538674 81.0166189 54.7798843 81.0166189 51.4373438 81.0166189 49.8917215 82.6458598 49.808543 85.8620923L46.9677137 85.3612613C47.8030188 81.0579881 50.3929925 78.9279162 54.8630627 78.9279162 62.29939 78.9279162 62.29939 83.2303093 62.29939 85.1940243L62.29939 95.0117191C62.29939 97.6016928 63.4691691 97.643062 65.1820285 97.643062L65.1820285 99.7322047zM74.5256503 97.643062C79.2047668 97.643062 80.4577244 93.3820381 80.4577244 89.4550482 80.4577244 85.5284984 79.4547422 81.2674745 74.6928873 81.2674745 70.9331345 81.2674745 68.4677084 84.4000884 68.4677084 89.4550482 68.4677084 94.510448 70.9331345 97.643062 74.5256503 97.643062L74.5256503 97.643062zM80.3322966 96.7663878L80.248678 96.7663878C79.079339 99.1477553 76.6984116 99.9826202 74.4006626 99.9826202 70.6409098 99.9826202 65.9617933 97.1417909 65.9617933 89.7059038 65.9617933 82.6876691 69.7633554 78.9279162 74.3579732 78.9279162 77.1569932 78.9279162 79.0370897 80.0976954 80.248678 82.0614104L80.3322966 82.0614104 80.3322966 69.7373604 82.8390919 69.7373604 82.8390919 99.4817893 80.3322966 99.4817893 80.3322966 96.7663878z"/>
    </g>
  </g>
</svg>
